# xmcd
#
# Track frame offsets:
#	150
#	17838
#	31654
#	52139
#	72094
#	89401
#	103450
#	120788
#	140180
#	160723
#	184771
#	202985
#	227782
#	246398
#	268722
#
# Disc length: 3812 seconds
#
# Revision: 0
# Processed by: cddbd v1.5.2PL0 Copyright (c) Steve Scherf et al.
# Submitted via: audiograbber 1.83.01
#
DISCID=d30ee20f
DTITLE=Sound Choice - Country Hits - Vol. 159 SC8807
DYEAR=1900
DGENRE=Karaoke
TTITLE0=Jessica Andrews - There's More To Me Than You
TTITLE1=Tammy Cochran - Love Won't Let Me
TTITLE2=Faith Hill - Stronger
TTITLE3=Montgomery Gentry - Speed
TTITLE4=Mary Chapen Carpenter, Sheryl Crow, and Emmylou Harris - Flesh And Blood
TTITLE5=Shania Twain - Up
TTITLE6=Tracy Byrd - Lately
TTITLE7=Shania Twain - When You Kiss Me
TTITLE8=Tim McGraw - She's My Kind Of Rain
TTITLE9=Tim McGraw - Tiny Dancer
TTITLE10=Diamond Rio - I Believe
TTITLE11=Cross Canadian Ragweed - 17
TTITLE12=Rebecca Lynn Howard - This Love
TTITLE13=Keith Urban - Raining On Sunday
TTITLE14=James Taylor and The Dixie Chicks - Wide Open Spaces
EXTD=
EXTT0=
EXTT1=
EXTT2=
EXTT3=
EXTT4=
EXTT5=
EXTT6=
EXTT7=
EXTT8=
EXTT9=
EXTT10=
EXTT11=
EXTT12=
EXTT13=
EXTT14=
PLAYORDER=
